<svg xmlns="http://www.w3.org/2000/svg" width="200" height="200" viewBox="0 0 200 200">
  <defs>
    <style>
      .cls-1 {
        fill-rule: evenodd;
      }
    </style>
  </defs>
  <path id="Layer" class="cls-1" d="M157.176,35.631a54.766,54.766,0,0,1,11.392,22.624A64.4,64.4,0,0,1,170.281,70.8q0.065,1.6.059,3.221t-0.079,3.247q-0.147,3.258-.555,6.554a71.647,71.647,0,0,1-11.966,29.113c-2.242,3.564-2.322,4.183-1.762,7.746,0.479,1.46,1,2.9,1.544,4.307a51.974,51.974,0,0,1-2.7,38.532c-4.748,8.348-11.828,16.986-21.21,21.43a27.682,27.682,0,0,1-8.108.624l-1.869-.012q-3.054-.019-6.106-0.045-2.127-.011-4.253-0.015-4.456-.011-8.915-0.006-5.706.007-11.421,0.1-4.4.065-8.811,0.131-2.111.036-4.224,0.092c-1.973.05-3.947,0.089-5.924,0.129l-1.756.065c-5.522.089-9.031-1.913-13.069-4.731-11.176-8.167-17.668-20.041-19.835-33.48A52.393,52.393,0,0,1,43.191,121.4c0.945-3.647.055-6.261-2.1-9.865L39.9,109.915a62.229,62.229,0,0,1-8.7-20.441,70.443,70.443,0,0,1-1.677-11.2q-0.1-1.416-.137-2.835T29.368,72.6q0.035-2.836.3-5.657C32.536,48.635,41.648,33,58.1,23.5A85.524,85.524,0,0,1,82.8,15.485,102.316,102.316,0,0,1,96.39,14.1q3.441-.122,6.893-0.015t6.878,0.447c18.252,1.817,35.75,8.639,47.015,21.1h0Zm-112.9,13.7C36.065,63.5,35.445,78.422,39.311,94.008c2.614,7.631,5.854,13.594,11.255,19.278,1.229,1.829,1.23,1.829,1.367,3.959a41.989,41.989,0,0,1-2.957,8.146c-5.216,12.42-4.611,24.444.607,36.142,3.763,7.831,10.513,15.863,19.106,19.922a25.571,25.571,0,0,0,7.541.564l1.7-.021q2.779-.036,5.552-0.081,1.934-.024,3.866-0.042,4.048-.04,8.09-0.072,5.17-.038,10.331,0,3.976,0.021,7.952.036,1.9,0.012,3.8.042c1.775,0.026,3.55.039,5.326,0.051l3.056,0.042c5.733-.565,9.634-3.819,13.534-7.112,8.852-8.637,14.289-19.84,14.5-32.357a50.533,50.533,0,0,0-5.992-22.109c-0.8-2.483-.8-2.483.015-4.688,0.528-.764,1.06-1.531,1.609-2.324,0.637-.969,1.276-1.943,1.94-2.952,0.717-1.072,1.44-2.151,2.189-3.269a54.841,54.841,0,0,0,7.931-17.092c0.192-.747.385-1.5,0.585-2.271a51.958,51.958,0,0,0-7.153-38.647c-10.094-14.17-22.561-22.2-40.546-23.447q-5.717-.166-11.437-0.149c-2.352,0-4.7-.029-7.056-0.063-21.965-.013-39.232,5.913-51.753,23.841h0Z"/>
  <path id="Layer-2" data-name="Layer" class="cls-1" d="M113.4,99.253l-3.158.1q-3.3.1-6.6,0.178c-3.322.089-6.639,0.225-9.958,0.364-13.786.433-25.161-.37-36.22-8.709a35.247,35.247,0,0,1-5.208-5.826L50.632,83.27c-5.139-7.928-5.1-17.107-4.123-25.994a45.431,45.431,0,0,1,6.008-11.4c4.5,0.688,8.083,2.285,12.139,4.127a85.023,85.023,0,0,0,58.216,3.27,79.288,79.288,0,0,0,18.964-9.195L145.61,44q1.281,2.085,2.543,4.179c0.473,0.776.945,1.552,1.431,2.351,4.334,8.062,4.333,17.97,1.177,26.362a40.4,40.4,0,0,1-22.238,20.556A63.2,63.2,0,0,1,113.4,99.253Zm23.112-16.716c4.729-5.831,7.46-10.892,7.253-18.195-0.021-.977-0.042-1.953-0.064-2.96-0.118-2.846-.118-2.846-1.577-6.031l-4.447,1.5q-3.391,1.063-6.791,2.111l-4.038,1.311c-23.937,7.112-47.517,5.14-70.3-4.326-2.822,7.517-2.984,13.585.6,20.954C61.751,84.283,67.51,88.589,76.32,91.645c7.733,1.214,15.251,1.028,23.071.875l4.156-.042C116.56,92.237,127.164,91.256,136.507,82.537Z"/>
</svg>
